<?xml version="1.0" standalone="no"?>
<!DOCTYPE svg PUBLIC "-//W3C//DTD SVG 20010904//EN"
 "http://www.w3.org/TR/2001/REC-SVG-20010904/DTD/svg10.dtd">
<svg version="1.0" xmlns="http://www.w3.org/2000/svg"
 width="676.000000pt" height="450.000000pt" viewBox="0 0 676.000000 450.000000"
 preserveAspectRatio="xMidYMid meet">

<g transform="translate(0.000000,450.000000) scale(0.100000,-0.100000)"
fill="#000000" stroke="none">
<path d="M4380 4192 c-17 -6 -12 -19 19 -49 22 -21 30 -39 33 -73 2 -38 0 -45
-15 -45 -28 0 -37 -24 -37 -107 0 -48 -4 -78 -11 -78 -5 0 -8 -4 -4 -9 3 -5
-2 -16 -11 -25 -20 -21 -8 -39 22 -32 18 5 24 2 24 -10 0 -14 -7 -15 -44 -10
-42 7 -46 5 -82 -34 -24 -25 -46 -40 -61 -40 -23 0 -24 -2 -18 -42 13 -81 26
-120 50 -144 35 -35 51 -30 82 29 19 34 35 52 46 51 9 -1 107 -54 216 -118
110 -64 201 -116 203 -116 2 0 3 17 3 39 l0 38 -152 88 c-137 78 -170 105
-128 105 21 0 55 49 55 79 0 14 -12 49 -27 76 -19 36 -27 69 -30 114 -3 63 -3
64 16 47 12 -11 27 -15 38 -12 11 3 28 -1 39 -9 34 -26 70 -18 126 28 65 53
79 78 67 120 -10 35 -56 87 -77 87 -8 0 -27 -8 -44 -17 -29 -18 -30 -18 -49 7
-39 51 -39 51 -84 45 -26 -4 -51 -2 -65 5 -22 12 -79 19 -100 12z"/>
<path d="M2510 4062 c-45 -17 -90 -68 -90 -101 0 -9 9 -31 20 -49 45 -74 206
-110 305 -68 43 18 75 43 75 59 0 6 -12 -1 -27 -15 -39 -37 -78 -50 -155 -50
-109 0 -201 56 -201 122 0 116 239 150 344 50 22 -20 39 -35 39 -33 0 18 -28
47 -67 69 -60 36 -175 43 -243 16z"/>
<path d="M2603 4053 c9 -2 23 -2 30 0 6 3 -1 5 -18 5 -16 0 -22 -2 -12 -5z"/>
<path d="M2535 3995 c22 -13 47 -24 55 -24 8 0 -3 11 -25 24 -22 14 -47 25
-55 25 -8 0 3 -11 25 -25z"/>
<path d="M3723 4012 l-23 -3 0 -235 0 -234 33 -13 32 -13 3 203 c1 112 6 203
10 203 4 0 43 -21 87 -46 44 -25 105 -60 135 -77 30 -16 65 -40 78 -51 l23
-21 -12 30 c-6 17 -12 41 -13 54 -1 19 -27 38 -151 110 -166 96 -170 98 -202
93z"/>
<path d="M2620 3960 c0 -5 5 -10 11 -10 5 0 7 5 4 10 -3 6 -8 10 -11 10 -2 0
-4 -4 -4 -10z"/>
<path d="M2590 3941 c0 -10 19 -25 25 -20 1 2 -3 10 -11 17 -8 7 -14 8 -14 3z"/>
<path d="M2670 3943 c0 -5 23 -21 50 -36 62 -35 66 -22 5 16 -49 29 -55 31
-55 20z"/>
<path d="M2593 3896 c5 -14 59 -14 64 -1 1 6 -13 10 -32 11 -21 0 -34 -4 -32
-10z"/>
<path d="M4316 3875 c-3 -8 -1 -15 4 -15 6 0 10 7 10 15 0 8 -2 15 -4 15 -2 0
-6 -7 -10 -15z"/>
<path d="M2793 3853 c-13 -8 -40 -21 -60 -29 -21 -7 -30 -13 -20 -14 21 0 93
35 102 50 8 13 5 12 -22 -7z"/>
<path d="M2125 3805 c-161 -62 -108 -215 83 -241 64 -8 144 11 183 43 16 14
29 28 29 33 0 4 -14 -5 -30 -20 -29 -27 -100 -50 -154 -50 -49 0 -131 33 -163
65 -83 83 -7 170 147 169 81 0 121 -15 174 -63 l30 -26 -16 25 c-39 62 -196
98 -283 65z"/>
<path d="M2558 3813 c7 -3 16 -2 19 1 4 3 -2 6 -13 5 -11 0 -14 -3 -6 -6z"/>
<path d="M4174 3783 c-15 -20 -23 -33 -16 -29 13 8 56 66 49 66 -3 0 -17 -17
-33 -37z"/>
<path d="M2623 3803 c15 -2 37 -2 50 0 12 2 0 4 -28 4 -27 0 -38 -2 -22 -4z"/>
<path d="M2945 3785 c-55 -20 -95 -66 -95 -110 0 -132 272 -192 393 -87 34 30
16 32 -21 3 -90 -73 -263 -58 -336 29 -45 55 -29 106 47 147 23 13 55 18 117
18 89 0 128 -13 179 -59 l24 -21 -11 22 c-31 58 -205 92 -297 58z"/>
<path d="M2136 3781 c-3 -4 6 -6 19 -3 14 2 25 6 25 8 0 8 -39 4 -44 -5z"/>
<path d="M2258 3783 c6 -2 18 -2 25 0 6 3 1 5 -13 5 -14 0 -19 -2 -12 -5z"/>
<path d="M3033 3773 c9 -2 23 -2 30 0 6 3 -1 5 -18 5 -16 0 -22 -2 -12 -5z"/>
<path d="M2978 3763 c7 -3 16 -2 19 1 4 3 -2 6 -13 5 -11 0 -14 -3 -6 -6z"/>
<path d="M3128 3755 c23 -7 54 -21 68 -30 15 -9 23 -12 19 -5 -10 16 -85 50
-110 49 -11 0 -1 -6 23 -14z"/>
<path d="M2135 3735 c22 -13 47 -24 55 -24 8 0 -3 11 -25 24 -22 14 -47 25
-55 25 -8 0 3 -11 25 -25z"/>
<path d="M2930 3736 c0 -8 92 -58 97 -53 6 6 -72 57 -87 57 -5 0 -10 -2 -10
-4z"/>
<path d="M2276 3682 c-2 -4 18 -20 45 -35 27 -16 49 -24 49 -20 0 12 -89 63
-94 55z"/>
<path d="M2593 3668 c-31 -15 -29 -23 13 -47 39 -24 74 -27 92 -9 19 19 15 26
-28 48 -44 23 -46 23 -77 8z"/>
<path d="M3048 3673 c6 -2 18 -2 25 0 6 3 1 5 -13 5 -14 0 -19 -2 -12 -5z"/>
<path d="M3100 3656 c0 -9 92 -57 103 -53 6 2 -9 16 -34 30 -42 25 -69 34 -69
23z"/>
<path d="M2193 3635 c5 -16 67 -19 67 -3 0 8 -13 13 -35 13 -19 0 -34 -4 -32
-10z"/>
<path d="M4810 3646 c0 -3 21 -16 48 -29 117 -60 431 -232 559 -306 l63 -36 1
-110 c2 -204 7 -400 10 -415 2 -8 5 29 8 83 l6 98 33 -28 32 -28 7 -542 c3
-299 4 -543 1 -543 -4 0 -44 23 -91 50 -47 28 -90 50 -96 50 -6 0 -11 -11 -11
-24 0 -20 21 -35 133 -99 131 -74 168 -85 180 -54 2 7 0 271 -4 587 -5 396
-11 581 -19 596 -7 11 -46 41 -88 65 -52 31 -78 53 -83 69 -4 14 -7 77 -8 141
l-1 116 -330 182 c-301 165 -350 190 -350 177z"/>
<path d="M2445 3620 c-4 -6 8 -10 30 -10 35 0 66 -13 93 -38 21 -19 53 -34 60
-28 7 8 8 7 -60 50 -56 35 -110 47 -123 26z"/>
<path d="M2780 3610 c0 -6 -20 -20 -45 -32 -25 -12 -45 -26 -45 -30 0 -13 10
-9 57 22 24 17 55 30 69 30 13 0 24 5 24 10 0 6 -13 10 -30 10 -16 0 -30 -5
-30 -10z"/>
<path d="M2914 3612 c7 -12 76 -13 76 -2 0 6 -18 10 -41 10 -22 0 -38 -4 -35
-8z"/>
<path d="M3030 3604 c15 -17 61 -15 68 4 2 8 -9 12 -38 12 -37 0 -41 -2 -30
-16z"/>
<path d="M3566 3593 c-3 -4 -6 -125 -6 -269 l0 -263 70 -37 70 -38 0 -81 c0
-72 3 -84 23 -102 12 -11 123 -78 247 -148 124 -71 289 -166 368 -212 78 -46
145 -83 148 -83 3 0 19 -9 35 -21 20 -14 29 -29 29 -47 0 -50 11 -68 46 -81
20 -7 36 -11 38 -9 1 1 9 27 18 56 l16 52 -71 41 c-40 23 -88 51 -107 62 -19
11 -179 103 -355 204 -176 101 -330 193 -342 203 -18 16 -23 30 -23 70 0 27 3
50 8 50 4 0 92 -48 196 -106 104 -58 195 -103 202 -100 11 4 14 54 14 265 l0
260 -29 20 c-16 12 -31 21 -34 21 -3 0 -69 36 -147 80 -78 44 -144 80 -146 80
-2 0 -55 28 -117 63 -125 70 -142 78 -151 70z m181 -204 c51 -9 63 -15 61 -28
-3 -12 -14 -15 -43 -14 l-40 2 38 -34 c36 -34 46 -58 29 -69 -15 -9 -135 121
-129 138 8 19 4 19 84 5z m133 -79 c-47 -120 -49 -123 -64 -111 -15 13 -11 32
27 121 19 43 25 50 42 43 11 -4 10 -14 -5 -53z m99 -54 c47 -47 62 -68 57 -81
-5 -14 -14 -16 -54 -10 -81 11 -92 16 -92 37 0 18 4 20 43 14 l42 -7 -37 31
c-25 21 -38 40 -38 56 0 13 3 24 8 24 4 -1 36 -29 71 -64z m-247 -85 c-2 -8 4
-10 18 -6 12 4 20 2 20 -5 0 -6 -5 -8 -12 -4 -7 5 -8 3 -4 -5 5 -7 15 -10 23
-6 9 3 35 -6 59 -20 43 -25 59 -43 28 -31 -9 4 -13 2 -8 -5 4 -7 1 -10 -7 -7
-8 3 -13 10 -12 17 2 6 -11 18 -28 27 -17 8 -28 11 -25 5 11 -16 -3 -13 -43
10 -20 11 -27 13 -16 4 11 -9 20 -21 20 -28 0 -7 12 -12 27 -12 15 -1 24 3 21
8 -3 5 0 7 8 5 8 -3 13 -10 12 -15 -1 -5 12 -18 29 -28 17 -10 28 -13 24 -7
-4 7 6 9 27 8 37 -3 77 -22 77 -37 0 -5 -12 -2 -27 8 -26 17 -27 17 -14 0 17
-21 8 -22 -27 -1 -19 11 -22 12 -9 1 9 -8 17 -20 17 -27 0 -7 7 -10 16 -6 18
7 54 -10 54 -26 0 -6 -10 -4 -24 5 -22 15 -23 14 -22 -1 0 -9 8 -23 16 -30 13
-10 12 -11 -4 -5 -14 5 -17 3 -12 -6 6 -8 -2 -7 -23 3 -17 9 -31 19 -31 22 0
2 9 0 19 -6 11 -5 22 -10 24 -10 10 0 0 34 -11 38 -7 2 -12 11 -12 19 0 8 -6
13 -13 10 -7 -3 -24 1 -38 9 -33 18 -47 17 -23 -2 18 -14 18 -15 -4 -4 -12 6
-20 15 -17 20 3 5 -3 14 -12 20 -16 11 -16 11 2 6 20 -6 20 -6 1 9 -15 11 -22
12 -27 3 -4 -7 -5 -16 -2 -22 3 -5 1 -6 -6 -2 -6 4 -9 12 -6 17 7 11 3 11 -20
3 -13 -5 -6 -13 30 -36 26 -16 44 -32 41 -35 -3 -3 2 -12 12 -20 16 -12 16
-13 -3 -7 -20 6 -20 5 -1 -10 23 -19 40 -21 30 -5 -5 8 -2 9 11 1 16 -8 31
-42 19 -42 -2 0 -25 13 -52 30 -26 16 -41 30 -33 30 11 0 9 4 -5 15 -16 13
-16 14 -1 9 29 -10 19 3 -19 25 -42 25 -51 26 -34 6 11 -13 10 -14 -5 -9 -14
6 -16 4 -10 -7 7 -11 4 -10 -15 2 -30 19 -38 74 -9 59 30 -17 35 -11 9 10 -14
11 -17 18 -8 14 12 -4 16 -1 14 12 -2 10 -9 20 -17 22 -11 3 -11 1 1 -8 12 -9
12 -11 1 -8 -9 3 -16 21 -18 47 l-3 43 32 -20 c18 -10 32 -25 30 -31z m284
-159 c-4 -3 -14 2 -24 12 -16 18 -16 18 6 6 13 -6 21 -14 18 -18z m-144 -10
c-7 -2 -10 -8 -7 -13 4 -5 -2 -6 -11 -2 -11 4 -13 8 -6 11 7 2 10 8 7 13 -4 5
2 6 11 2 11 -4 13 -8 6 -11z m148 -32 c0 -5 -7 -7 -15 -4 -8 4 -15 8 -15 10 0
2 7 4 15 4 8 0 15 -4 15 -10z m-5 -48 c-3 -3 -11 0 -18 7 -9 10 -8 11 6 5 10
-3 15 -9 12 -12z m-39 -25 c6 -8 3 -8 -9 1 -9 8 -21 11 -26 7 -6 -3 -19 -1
-28 5 -15 9 -14 10 6 4 17 -4 21 -3 16 6 -6 9 -3 9 13 1 12 -6 24 -17 28 -24z"/>
<path d="M3680 3196 c0 -3 9 -10 20 -16 11 -6 20 -8 20 -6 0 3 -9 10 -20 16
-11 6 -20 8 -20 6z"/>
<path d="M3715 3100 c3 -5 11 -10 16 -10 6 0 7 5 4 10 -3 6 -11 10 -16 10 -6
0 -7 -4 -4 -10z"/>
<path d="M3684 3063 c2 -9 9 -19 16 -21 7 -3 10 0 6 7 -4 6 -1 11 6 11 9 0 9
3 -2 10 -22 14 -29 12 -26 -7z"/>
<path d="M2360 3570 c-9 -6 -10 -10 -3 -10 6 0 15 5 18 10 8 12 4 12 -15 0z"/>
<path d="M2158 3553 c7 -3 16 -2 19 1 4 3 -2 6 -13 5 -11 0 -14 -3 -6 -6z"/>
<path d="M2218 3543 c18 -2 45 -2 60 0 15 2 0 4 -33 4 -33 0 -45 -2 -27 -4z"/>
<path d="M2960 3530 c8 -5 22 -9 30 -9 10 0 8 3 -5 9 -27 12 -43 12 -25 0z"/>
<path d="M3038 3513 c17 -2 47 -2 65 0 17 2 3 4 -33 4 -36 0 -50 -2 -32 -4z"/>
<path d="M2504 3485 c-95 -47 -110 -131 -34 -193 62 -51 191 -76 276 -53 53
14 108 52 112 76 3 18 2 18 -13 -3 -32 -44 -93 -67 -181 -67 -70 0 -88 4 -139
30 -74 38 -105 88 -83 132 8 15 20 27 26 26 7 -2 11 2 10 8 -2 7 13 21 32 33
29 17 51 21 125 21 97 0 132 -12 189 -64 l29 -26 -22 32 c-49 71 -227 98 -327
48z"/>
<path d="M2613 3483 c9 -2 23 -2 30 0 6 3 -1 5 -18 5 -16 0 -22 -2 -12 -5z"/>
<path d="M2540 3470 c-11 -8 -7 -9 15 -4 37 8 45 14 19 14 -10 0 -26 -5 -34
-10z"/>
<path d="M2699 3469 c24 -4 59 -17 78 -29 19 -11 31 -15 27 -9 -11 18 -87 49
-119 48 -24 -1 -22 -3 14 -10z"/>
<path d="M890 3391 c-68 -37 -126 -73 -128 -79 -1 -5 37 -31 85 -57 48 -27
107 -59 131 -71 23 -13 50 -24 59 -24 26 0 275 140 270 153 -6 18 -240 146
-267 147 -14 0 -81 -31 -150 -69z m138 -31 c4 -12 2 -13 -9 -2 -17 15 -51 16
-67 0 -10 -10 -7 -15 10 -25 23 -12 23 -12 2 -13 -12 0 -28 7 -35 16 -11 14
-10 18 6 31 25 18 87 13 93 -7z m46 -16 c23 -9 20 -27 -3 -19 -16 5 -20 1 -19
-17 2 -25 15 -48 29 -48 5 0 8 10 6 22 -1 17 4 24 22 26 24 4 50 -13 38 -25
-4 -4 -13 -1 -19 5 -18 18 -27 14 -21 -8 6 -21 -18 -37 -39 -26 -58 28 -97 66
-69 66 6 0 11 -4 11 -10 0 -5 7 -10 15 -10 9 0 12 6 8 16 -3 9 0 20 8 25 17
11 14 10 33 3z"/>
<path d="M2510 3445 c0 -9 80 -55 97 -55 9 0 -4 13 -30 30 -45 28 -67 37 -67
25z"/>
<path d="M4998 3427 c-10 -8 -18 -31 -20 -58 -2 -27 -8 -44 -16 -44 -7 0 -17
-6 -21 -14 -9 -14 -3 -51 9 -51 14 0 30 -51 30 -95 0 -53 31 -110 70 -130 15
-8 30 -11 34 -8 12 13 6 56 -11 68 -10 8 -20 36 -26 76 -10 72 -10 87 -1 145
5 35 9 41 25 37 16 -4 19 0 19 26 0 27 -5 34 -35 47 -41 17 -36 17 -57 1z"/>
<path d="M2630 3380 c0 -5 7 -10 16 -10 8 0 12 5 9 10 -3 6 -10 10 -16 10 -5
0 -9 -4 -9 -10z"/>
<path d="M2696 3363 c-8 -9 95 -73 107 -66 5 3 0 11 -10 17 -55 37 -91 55 -97
49z"/>
<path d="M2648 3333 c7 -3 16 -2 19 1 4 3 -2 6 -13 5 -11 0 -14 -3 -6 -6z"/>
<path d="M2610 3313 c0 -15 35 -26 60 -18 35 11 23 30 -20 30 -24 0 -40 -5
-40 -12z"/>
<path d="M5207 3323 c-13 -13 -7 -50 12 -67 13 -12 20 -36 24 -83 3 -36 10
-69 16 -73 9 -5 8 -10 -4 -20 -9 -7 -15 -28 -15 -50 0 -33 -3 -37 -20 -33 -17
4 -20 0 -20 -24 0 -32 29 -53 74 -53 28 0 36 17 36 71 0 26 4 39 13 38 27 -3
34 2 32 26 -2 13 -13 37 -24 51 -14 18 -21 41 -21 73 0 25 -8 61 -18 79 -18
34 -74 77 -85 65z"/>
<path d="M2459 3276 c13 -16 51 -41 51 -33 0 2 -15 14 -32 27 -21 15 -28 17
-19 6z"/>
<path d="M2545 3226 c17 -8 55 -16 85 -19 l55 -6 -60 13 c-33 7 -71 16 -85 19
-20 5 -18 4 5 -7z"/>
<path d="M2740 3224 c-31 -8 -37 -13 -20 -13 14 0 39 6 55 14 37 17 24 16 -35
-1z"/>
<path d="M760 3176 c0 -8 12 -23 28 -34 42 -29 238 -132 251 -132 7 0 71 32
142 72 94 52 129 77 129 91 0 20 0 20 -182 -85 -36 -21 -76 -38 -88 -38 -16 0
-161 73 -272 137 -5 2 -8 -3 -8 -11z"/>
<path d="M760 3065 c0 -8 17 -25 38 -38 66 -42 229 -127 242 -127 14 0 239
126 259 145 7 7 12 18 10 23 -2 6 -60 -20 -129 -58 -69 -39 -133 -70 -142 -70
-10 0 -57 22 -105 49 -155 85 -173 93 -173 76z"/>
<path d="M762 2954 c3 -16 247 -163 273 -164 13 0 246 128 264 145 7 7 12 18
10 24 -2 6 -60 -20 -129 -59 -69 -38 -131 -70 -139 -70 -7 0 -70 30 -139 68
-155 82 -145 78 -140 56z"/>
<path d="M2548 2868 c-25 -9 -37 -36 -23 -50 3 -3 24 -1 46 5 33 8 39 14 37
31 -3 24 -22 29 -60 14z"/>
<path d="M2620 2857 c0 -18 8 -26 34 -34 24 -8 38 -7 45 0 18 18 13 27 -24 43
-47 19 -55 18 -55 -9z"/>
<path d="M760 2846 c0 -17 16 -27 161 -104 l115 -62 52 26 c29 14 52 32 52 40
0 20 -20 17 -55 -6 -16 -11 -36 -20 -43 -20 -8 0 -72 32 -143 70 -70 39 -131
70 -134 70 -3 0 -5 -6 -5 -14z"/>
<path d="M1342 2820 c-18 -11 -32 -21 -32 -23 0 -1 18 -3 39 -4 47 -2 73 20
43 36 -14 7 -26 5 -50 -9z m43 -10 c-3 -5 -10 -10 -16 -10 -5 0 -9 5 -9 10 0
6 7 10 16 10 8 0 12 -4 9 -10z"/>
<path d="M5790 2812 c0 -4 19 -18 43 -30 23 -12 49 -26 57 -32 8 -5 53 -30
100 -56 47 -26 88 -52 92 -58 4 -6 8 -55 8 -108 0 -59 4 -98 10 -98 12 0 14
199 2 216 -7 11 -293 174 -306 174 -3 0 -6 -4 -6 -8z"/>
<path d="M1397 2791 c-41 -27 -45 -33 -14 -26 27 7 39 -8 15 -18 -8 -3 -6 -6
5 -6 9 -1 17 -4 17 -8 0 -10 72 -9 89 1 15 10 -4 36 -25 36 -8 0 -14 5 -14 10
0 7 -6 7 -19 1 -21 -12 -32 -5 -24 15 6 17 5 17 -30 -5z m59 -36 c-11 -8 -24
-15 -30 -15 -5 0 -1 7 10 15 10 8 24 14 29 14 6 0 1 -6 -9 -14z m39 -5 c3 -5
-1 -10 -10 -10 -9 0 -13 5 -10 10 3 6 8 10 10 10 2 0 7 -4 10 -10z"/>
<path d="M2420 2789 c0 -11 4 -18 10 -14 5 3 7 12 3 20 -7 21 -13 19 -13 -6z"/>
<path d="M2793 2788 c-7 -8 -8 -19 -3 -28 8 -12 10 -12 15 2 10 26 2 43 -12
26z"/>
<path d="M762 2734 c4 -19 244 -153 277 -154 13 0 39 9 58 21 23 14 38 18 46
11 7 -5 37 -23 67 -39 30 -17 85 -47 122 -67 36 -20 73 -36 82 -36 9 0 64 27
123 60 58 33 109 60 113 60 12 0 32 28 28 39 -1 5 -59 -22 -127 -60 -68 -38
-130 -69 -138 -69 -16 0 -270 137 -278 150 -3 4 -26 -3 -52 -17 l-48 -25 -130
71 c-71 39 -134 71 -138 71 -5 0 -7 -7 -5 -16z"/>
<path d="M2477 2744 c-4 -4 -7 -17 -7 -28 0 -16 6 -21 28 -22 15 0 38 -2 51
-5 28 -5 37 10 19 33 -14 18 -79 34 -91 22z"/>
<path d="M2658 2733 c-11 -3 -18 -14 -18 -30 0 -24 2 -25 33 -18 17 4 40 7 50
7 12 -1 17 7 17 24 0 21 -4 24 -32 23 -18 -1 -41 -3 -50 -6z"/>
<path d="M760 2633 c0 -15 32 -37 131 -92 73 -39 138 -71 146 -71 8 0 31 9 53
20 l39 20 73 -40 c40 -22 105 -57 144 -77 l71 -36 131 73 c73 40 132 79 132
87 0 7 -2 13 -5 13 -3 0 -61 -31 -129 -70 -68 -38 -127 -70 -131 -70 -11 0
-269 142 -275 151 -3 5 -28 -3 -55 -16 l-48 -25 -116 62 c-64 33 -126 68 -138
76 -21 13 -23 13 -23 -5z"/>
<path d="M3300 2565 c-7 -8 -29 -15 -49 -16 -56 -2 -85 -13 -99 -39 -12 -22
-11 -31 8 -72 19 -44 24 -48 56 -48 31 0 35 3 29 20 -9 28 3 44 21 29 11 -9
14 -7 14 9 0 12 13 30 31 42 24 18 30 28 27 53 -3 35 -19 45 -38 22z"/>
<path d="M760 2526 c0 -8 57 -46 131 -87 l132 -72 -28 -14 c-15 -8 -35 -13
-45 -10 -12 3 -17 0 -14 -8 3 -8 -27 -30 -80 -59 -47 -26 -88 -51 -91 -55 -6
-10 247 -151 271 -151 17 0 76 29 186 93 l78 44 55 -28 c62 -31 92 -28 139 15
l24 23 126 -68 c69 -38 133 -69 142 -69 28 0 275 140 271 153 -4 12 -43 36
-195 119 l-73 39 -107 -57 c-59 -31 -126 -70 -150 -85 -24 -16 -61 -38 -82
-49 l-38 -19 -53 27 c-111 57 -214 116 -220 125 -4 5 -11 7 -16 4 -5 -3 -22 2
-37 12 l-28 18 37 23 c32 20 38 21 53 8 35 -29 244 -138 265 -138 32 0 261
132 265 152 2 13 -30 -1 -120 -52 -68 -38 -133 -70 -144 -70 -20 0 -237 114
-271 141 -11 10 -24 7 -61 -10 l-48 -22 -131 70 c-71 39 -133 71 -137 71 -3 0
-6 -6 -6 -14z m1019 -230 c9 -11 9 -16 0 -22 -7 -4 -15 -2 -17 4 -6 18 -62 15
-62 -3 0 -8 5 -15 11 -15 6 0 24 -9 40 -21 l29 -20 -2 23 c-3 19 2 24 30 26
24 2 32 -1 32 -12 0 -19 -12 -20 -28 -4 -10 10 -12 7 -10 -12 3 -22 20 -50 31
-50 2 0 3 10 3 23 -1 15 5 23 19 25 26 3 49 -13 40 -27 -5 -9 -11 -9 -23 1
-13 11 -15 10 -9 -4 9 -24 -26 -43 -53 -28 -11 6 -20 15 -20 20 0 6 -9 10 -20
10 -11 0 -23 7 -26 15 -4 8 -14 15 -23 15 -10 0 -26 6 -36 14 -19 14 -19 15
-1 35 22 24 77 28 95 7z m-745 -21 c6 -18 -7 -19 -33 -3 -10 6 -26 8 -35 5
-21 -8 -21 -37 1 -37 9 0 14 -3 10 -6 -3 -4 -17 -4 -31 0 -19 5 -24 11 -19 24
9 25 23 32 64 32 24 0 39 -5 43 -15z m56 -40 c0 -18 -17 -20 -23 -2 -2 6 -7
10 -10 6 -10 -8 8 -62 22 -67 9 -3 11 2 7 16 -10 29 24 47 50 27 10 -7 16 -17
12 -21 -4 -4 -14 -1 -22 5 -12 10 -15 8 -18 -11 -4 -27 -39 -36 -60 -15 -8 8
-24 18 -36 21 -23 8 -28 21 -12 31 6 3 10 1 10 -4 0 -6 5 -11 10 -11 6 0 10 9
10 20 0 16 7 20 30 20 20 0 30 -5 30 -15z"/>
<path d="M2120 2523 c8 -3 19 -11 23 -17 6 -7 7 -6 4 4 -2 8 -12 16 -23 17
-13 2 -15 1 -4 -4z"/>
<path d="M2077 2508 c-15 -12 -14 -13 12 -13 22 0 27 3 19 13 -6 6 -11 12 -12
12 -1 0 -10 -6 -19 -12z"/>
<path d="M2154 2488 c-4 -6 -2 -14 5 -16 9 -3 9 -7 0 -18 -8 -10 -4 -10 20 2
17 9 31 18 31 20 0 3 -5 2 -10 -1 -6 -4 -18 -4 -28 0 -14 5 -14 7 -2 15 9 6
10 10 3 10 -6 0 -15 -5 -19 -12z"/>
<path d="M2214 2456 c-10 -8 -13 -15 -7 -19 6 -4 14 0 17 9 3 8 11 12 17 8 8
-4 7 -9 -2 -16 -12 -8 -11 -9 0 -6 8 3 16 9 18 15 6 17 -23 23 -43 9z"/>
<path d="M592 2382 l-32 -18 41 -1 c51 -2 64 4 48 23 -14 17 -16 17 -57 -4z
m43 -2 c3 -5 -1 -10 -10 -10 -9 0 -13 5 -10 10 3 6 8 10 10 10 2 0 7 -4 10
-10z"/>
<path d="M643 2350 c-36 -22 -45 -37 -12 -19 15 8 24 8 32 0 8 -8 8 -11 -1
-11 -7 0 -12 -4 -12 -10 0 -5 16 0 35 11 37 22 49 37 16 19 -21 -11 -37 2 -26
20 9 14 5 13 -32 -10z"/>
<path d="M3135 2346 c-17 -12 -20 -27 -20 -118 0 -129 8 -218 18 -211 4 2 5
-7 1 -21 -3 -13 -2 -31 2 -38 11 -17 12 -598 1 -598 -5 0 -6 -4 -2 -10 3 -5
12 -7 19 -4 12 5 54 9 133 12 18 1 32 6 30 11 -1 4 18 23 43 42 54 41 84 98
105 197 8 40 24 95 36 122 11 27 18 53 15 59 -7 10 -30 16 -109 26 l-48 6 26
31 c14 17 24 37 21 44 -7 18 104 19 124 2 12 -11 12 -10 2 3 -8 11 -9 18 0 27
21 21 -2 40 -71 58 -39 10 -71 21 -71 24 0 3 14 7 31 8 44 3 99 29 99 46 0 15
-21 21 -111 32 l-56 6 -33 85 c-29 77 -94 172 -108 159 -3 -3 0 -12 7 -20 9
-11 6 -15 -15 -20 -32 -8 -57 10 -49 35 8 23 5 23 -20 5z"/>
<path d="M4790 2346 c0 -3 9 -10 20 -16 11 -6 20 -8 20 -6 0 3 -9 10 -20 16
-11 6 -20 8 -20 6z"/>
<path d="M698 2314 c-16 -8 -28 -16 -28 -17 0 -2 17 -4 38 -4 43 -1 71 15 50
28 -18 12 -29 11 -60 -7z m52 -4 c0 -5 -7 -10 -15 -10 -8 0 -15 5 -15 10 0 6
7 10 15 10 8 0 15 -4 15 -10z"/>
<path d="M4957 2289 c7 -7 15 -10 18 -7 3 3 -2 9 -12 12 -14 6 -15 5 -6 -5z"/>
<path d="M4760 2266 c0 -3 9 -10 20 -16 11 -6 20 -8 20 -6 0 3 -9 10 -20 16
-11 6 -20 8 -20 6z"/>
<path d="M4940 2266 c0 -2 7 -7 16 -10 8 -3 12 -2 9 4 -6 10 -25 14 -25 6z"/>
<path d="M3591 2247 c2 -1 15 -11 29 -22 l25 -20 -19 23 c-11 12 -24 22 -29
22 -6 0 -8 -1 -6 -3z"/>
<path d="M4760 2230 c8 -5 20 -10 25 -10 6 0 3 5 -5 10 -8 5 -19 10 -25 10 -5
0 -3 -5 5 -10z"/>
<path d="M4940 2236 c0 -3 14 -12 30 -21 17 -9 30 -13 30 -11 0 3 -13 12 -30
21 -16 9 -30 13 -30 11z"/>
<path d="M5010 2226 c0 -2 7 -7 16 -10 8 -3 12 -2 9 4 -6 10 -25 14 -25 6z"/>
<path d="M4740 2216 c0 -3 9 -10 20 -16 11 -6 20 -8 20 -6 0 3 -9 10 -20 16
-11 6 -20 8 -20 6z"/>
<path d="M5050 2206 c0 -3 9 -10 20 -16 11 -6 20 -8 20 -6 0 3 -9 10 -20 16
-11 6 -20 8 -20 6z"/>
<path d="M4900 2196 c0 -3 14 -12 30 -21 17 -9 30 -13 30 -11 0 3 -13 12 -30
21 -16 9 -30 13 -30 11z"/>
<path d="M4950 2196 c0 -2 7 -7 16 -10 8 -3 12 -2 9 4 -6 10 -25 14 -25 6z"/>
<path d="M5010 2196 c0 -3 14 -12 30 -21 17 -9 30 -13 30 -11 0 3 -13 12 -30
21 -16 9 -30 13 -30 11z"/>
<path d="M3685 2170 c10 -11 20 -20 23 -20 3 0 -3 9 -13 20 -10 11 -20 20 -23
20 -3 0 3 -9 13 -20z"/>
<path d="M4746 2175 c10 -8 23 -15 28 -15 6 0 1 7 -10 15 -10 8 -23 15 -28 15
-6 0 -1 -7 10 -15z"/>
<path d="M4990 2176 c0 -3 14 -12 30 -21 17 -9 30 -13 30 -11 0 3 -13 12 -30
21 -16 9 -30 13 -30 11z"/>
<path d="M4720 2156 c0 -3 9 -10 20 -16 11 -6 20 -8 20 -6 0 3 -9 10 -20 16
-11 6 -20 8 -20 6z"/>
<path d="M4970 2156 c0 -3 9 -10 20 -16 11 -6 20 -8 20 -6 0 3 -9 10 -20 16
-11 6 -20 8 -20 6z"/>
<path d="M5080 2156 c0 -3 9 -10 20 -16 11 -6 20 -8 20 -6 0 3 -9 10 -20 16
-11 6 -20 8 -20 6z"/>
<path d="M5130 2156 c0 -2 7 -7 16 -10 8 -3 12 -2 9 4 -6 10 -25 14 -25 6z"/>
<path d="M5458 2135 c-3 -14 -1 -25 3 -25 5 0 9 11 9 25 0 14 -2 25 -4 25 -2
0 -6 -11 -8 -25z"/>
<path d="M3750 2115 c13 -14 26 -25 28 -25 3 0 -5 11 -18 25 -13 14 -26 25
-28 25 -3 0 5 -11 18 -25z"/>
<path d="M4474 2126 c11 -9 24 -16 30 -16 12 0 7 5 -24 19 -24 11 -24 11 -6
-3z"/>
<path d="M1310 2115 c0 -19 71 -55 107 -55 34 0 93 34 93 54 0 11 -11 8 -46
-11 l-46 -26 -54 26 c-42 21 -54 24 -54 12z"/>
<path d="M4442 2114 c10 -10 20 -15 24 -12 3 4 -5 12 -18 18 -22 12 -22 12 -6
-6z"/>
<path d="M4960 2126 c0 -2 7 -7 16 -10 8 -3 12 -2 9 4 -6 10 -25 14 -25 6z"/>
<path d="M5020 2126 c0 -3 14 -12 30 -21 17 -9 30 -13 30 -11 0 3 -13 12 -30
21 -16 9 -30 13 -30 11z"/>
<path d="M5130 2126 c0 -3 14 -12 30 -21 17 -9 30 -13 30 -11 0 3 -13 12 -30
21 -16 9 -30 13 -30 11z"/>
<path d="M2235 2090 l-40 -19 50 6 c57 6 60 8 50 22 -8 15 -13 14 -60 -9z"/>
<path d="M5000 2106 c0 -3 9 -10 20 -16 11 -6 20 -8 20 -6 0 3 -9 10 -20 16
-11 6 -20 8 -20 6z"/>
<path d="M5227 2099 c7 -7 15 -10 18 -7 3 3 -2 9 -12 12 -14 6 -15 5 -6 -5z"/>
<path d="M4434 2086 c11 -9 24 -16 30 -16 12 0 7 5 -24 19 -24 11 -24 11 -6
-3z"/>
<path d="M5130 2096 c0 -3 9 -10 20 -16 11 -6 20 -8 20 -6 0 3 -9 10 -20 16
-11 6 -20 8 -20 6z"/>
<path d="M3800 2074 c10 -16 10 -35 -2 -92 -8 -40 -11 -72 -8 -72 4 0 13 34
20 76 12 69 12 77 -5 92 -16 16 -17 16 -5 -4z"/>
<path d="M4980 2086 c0 -3 14 -12 30 -21 17 -9 30 -13 30 -11 0 3 -13 12 -30
21 -16 9 -30 13 -30 11z"/>
<path d="M5090 2086 c0 -3 9 -10 20 -16 11 -6 20 -8 20 -6 0 3 -9 10 -20 16
-11 6 -20 8 -20 6z"/>
<path d="M5200 2086 c0 -3 9 -10 20 -16 11 -6 20 -8 20 -6 0 3 -9 10 -20 16
-11 6 -20 8 -20 6z"/>
<path d="M730 2060 c-12 -8 -11 -10 8 -10 12 0 22 5 22 10 0 13 -11 13 -30 0z"/>
<path d="M5187 2059 c7 -7 15 -10 18 -7 3 3 -2 9 -12 12 -14 6 -15 5 -6 -5z"/>
<path d="M4440 2050 c8 -5 20 -10 25 -10 6 0 3 5 -5 10 -8 5 -19 10 -25 10 -5
0 -3 -5 5 -10z"/>
<path d="M4627 2049 c7 -7 15 -10 18 -7 3 3 -2 9 -12 12 -14 6 -15 5 -6 -5z"/>
<path d="M5050 2046 c0 -3 9 -10 20 -16 11 -6 20 -8 20 -6 0 3 -9 10 -20 16
-11 6 -20 8 -20 6z"/>
<path d="M5101 2047 c2 -1 13 -9 24 -17 19 -14 19 -14 6 3 -7 9 -18 17 -24 17
-6 0 -8 -1 -6 -3z"/>
<path d="M5165 2043 c6 -6 28 -20 50 -32 22 -13 31 -15 20 -6 -22 18 -86 53
-70 38z"/>
<path d="M5270 2046 c0 -3 9 -10 20 -16 11 -6 20 -8 20 -6 0 3 -9 10 -20 16
-11 6 -20 8 -20 6z"/>
<path d="M3650 2000 c45 -39 60 -47 60 -32 0 12 -76 72 -92 72 -7 0 7 -18 32
-40z"/>
<path d="M4600 2030 c8 -5 20 -10 25 -10 6 0 3 5 -5 10 -8 5 -19 10 -25 10 -5
0 -3 -5 5 -10z"/>
<path d="M4444 2016 c11 -9 24 -16 30 -16 12 0 7 5 -24 19 -24 11 -24 11 -6
-3z"/>
<path d="M4560 2026 c0 -3 9 -10 20 -16 11 -6 20 -8 20 -6 0 3 -9 10 -20 16
-11 6 -20 8 -20 6z"/>
<path d="M4690 2016 c0 -3 9 -10 20 -16 11 -6 20 -8 20 -6 0 3 -9 10 -20 16
-11 6 -20 8 -20 6z"/>
<path d="M4650 2006 c0 -3 9 -10 20 -16 11 -6 20 -8 20 -6 0 3 -9 10 -20 16
-11 6 -20 8 -20 6z"/>
<path d="M4430 1996 c0 -3 9 -10 20 -16 11 -6 20 -8 20 -6 0 3 -9 10 -20 16
-11 6 -20 8 -20 6z"/>
<path d="M5130 1996 c0 -2 7 -7 16 -10 8 -3 12 -2 9 4 -6 10 -25 14 -25 6z"/>
<path d="M4023 1968 c-59 -30 -79 -81 -48 -124 14 -21 253 -164 272 -164 14 0
25 29 16 42 -3 7 -1 8 6 4 14 -9 63 92 65 136 1 28 -6 34 -84 79 -72 41 -93
49 -135 48 -30 0 -67 -9 -92 -21z"/>
<path d="M4740 1986 c0 -3 9 -10 20 -16 11 -6 20 -8 20 -6 0 3 -9 10 -20 16
-11 6 -20 8 -20 6z"/>
<path d="M5170 1976 c0 -3 9 -10 20 -16 11 -6 20 -8 20 -6 0 3 -9 10 -20 16
-11 6 -20 8 -20 6z"/>
<path d="M4720 1966 c0 -3 9 -10 20 -16 11 -6 20 -8 20 -6 0 3 -9 10 -20 16
-11 6 -20 8 -20 6z"/>
<path d="M4431 1956 c2 -2 15 -9 29 -15 24 -11 24 -11 6 3 -16 13 -49 24 -35
12z"/>
<path d="M4620 1956 c0 -2 7 -7 16 -10 8 -3 12 -2 9 4 -6 10 -25 14 -25 6z"/>
<path d="M4590 1946 c0 -3 9 -10 20 -16 11 -6 20 -8 20 -6 0 3 -9 10 -20 16
-11 6 -20 8 -20 6z"/>
<path d="M4700 1946 c0 -3 9 -10 20 -16 11 -6 20 -8 20 -6 0 3 -9 10 -20 16
-11 6 -20 8 -20 6z"/>
<path d="M4430 1931 c0 -9 30 -24 36 -18 2 1 -6 8 -16 15 -11 7 -20 8 -20 3z"/>
<path d="M4660 1936 c0 -3 14 -12 30 -21 17 -9 30 -13 30 -11 0 3 -13 12 -30
21 -16 9 -30 13 -30 11z"/>
<path d="M4780 1926 c0 -2 7 -7 16 -10 8 -3 12 -2 9 4 -6 10 -25 14 -25 6z"/>
<path d="M4750 1916 c0 -3 9 -10 20 -16 11 -6 20 -8 20 -6 0 3 -9 10 -20 16
-11 6 -20 8 -20 6z"/>
<path d="M4421 1897 c2 -1 13 -9 24 -17 19 -14 19 -14 6 3 -7 9 -18 17 -24 17
-6 0 -8 -1 -6 -3z"/>
<path d="M4730 1896 c0 -3 9 -10 20 -16 11 -6 20 -8 20 -6 0 3 -9 10 -20 16
-11 6 -20 8 -20 6z"/>
<path d="M4900 1896 c0 -3 9 -10 20 -16 11 -6 20 -8 20 -6 0 3 -9 10 -20 16
-11 6 -20 8 -20 6z"/>
<path d="M4587 1879 c7 -7 15 -10 18 -7 3 3 -2 9 -12 12 -14 6 -15 5 -6 -5z"/>
<path d="M4800 1886 c0 -3 14 -12 30 -21 17 -9 30 -13 30 -11 0 3 -13 12 -30
21 -16 9 -30 13 -30 11z"/>
<path d="M1860 1859 c-28 -16 -30 -19 -10 -15 14 3 36 6 48 6 14 0 22 5 20 12
-7 19 -21 18 -58 -3z"/>
<path d="M3579 1858 c14 -16 34 -27 45 -27 20 1 20 1 1 6 -11 3 -31 15 -45 26
l-25 22 24 -27z"/>
<path d="M4410 1871 c0 -9 30 -24 36 -18 2 1 -6 8 -16 15 -11 7 -20 8 -20 3z"/>
<path d="M4710 1876 c0 -3 9 -10 20 -16 11 -6 20 -8 20 -6 0 3 -9 10 -20 16
-11 6 -20 8 -20 6z"/>
<path d="M4670 1866 c0 -3 14 -12 30 -21 17 -9 30 -13 30 -11 0 3 -13 12 -30
21 -16 9 -30 13 -30 11z"/>
<path d="M1100 1844 c-14 -7 -18 -13 -10 -13 24 1 54 15 44 21 -5 4 -20 0 -34
-8z"/>
<path d="M4400 1846 c0 -3 9 -10 20 -16 11 -6 20 -8 20 -6 0 3 -9 10 -20 16
-11 6 -20 8 -20 6z"/>
<path d="M4530 1840 c8 -5 20 -10 25 -10 6 0 3 5 -5 10 -8 5 -19 10 -25 10 -5
0 -3 -5 5 -10z"/>
<path d="M4650 1846 c0 -3 9 -10 20 -16 11 -6 20 -8 20 -6 0 3 -9 10 -20 16
-11 6 -20 8 -20 6z"/>
<path d="M4760 1846 c0 -3 14 -12 30 -21 17 -9 30 -13 30 -11 0 3 -13 12 -30
21 -16 9 -30 13 -30 11z"/>
<path d="M4500 1826 c0 -2 7 -7 16 -10 8 -3 12 -2 9 4 -6 10 -25 14 -25 6z"/>
<path d="M4857 1819 c7 -7 15 -10 18 -7 3 3 -2 9 -12 12 -14 6 -15 5 -6 -5z"/>
<path d="M4391 1817 c2 -1 13 -9 24 -17 19 -14 19 -14 6 3 -7 9 -18 17 -24 17
-6 0 -8 -1 -6 -3z"/>
<path d="M4587 1809 c7 -7 15 -10 18 -7 3 3 -2 9 -12 12 -14 6 -15 5 -6 -5z"/>
<path d="M4630 1816 c0 -2 7 -7 16 -10 8 -3 12 -2 9 4 -6 10 -25 14 -25 6z"/>
<path d="M4700 1816 c0 -3 14 -12 30 -21 17 -9 30 -13 30 -11 0 3 -13 12 -30
21 -16 9 -30 13 -30 11z"/>
<path d="M4792 1794 c10 -10 20 -16 22 -13 3 3 -5 11 -17 18 -21 13 -21 12 -5
-5z"/>
<path d="M4830 1806 c0 -3 9 -10 20 -16 11 -6 20 -8 20 -6 0 3 -9 10 -20 16
-11 6 -20 8 -20 6z"/>
<path d="M4560 1796 c0 -3 9 -10 20 -16 11 -6 20 -8 20 -6 0 3 -9 10 -20 16
-11 6 -20 8 -20 6z"/>
<path d="M4670 1796 c0 -3 14 -12 30 -21 17 -9 30 -13 30 -11 0 3 -13 12 -30
21 -16 9 -30 13 -30 11z"/>
<path d="M4397 1779 c7 -7 15 -10 18 -7 3 3 -2 9 -12 12 -14 6 -15 5 -6 -5z"/>
<path d="M4777 1769 c7 -7 15 -10 18 -7 3 3 -2 9 -12 12 -14 6 -15 5 -6 -5z"/>
<path d="M4377 1759 c7 -7 15 -10 18 -7 3 3 -2 9 -12 12 -14 6 -15 5 -6 -5z"/>
<path d="M4500 1766 c0 -3 9 -10 20 -16 11 -6 20 -8 20 -6 0 3 -9 10 -20 16
-11 6 -20 8 -20 6z"/>
<path d="M4610 1766 c0 -3 9 -10 20 -16 11 -6 20 -8 20 -6 0 3 -9 10 -20 16
-11 6 -20 8 -20 6z"/>
<path d="M4740 1756 c0 -3 9 -10 20 -16 11 -6 20 -8 20 -6 0 3 -9 10 -20 16
-11 6 -20 8 -20 6z"/>
<path d="M3735 1730 c-3 -11 -18 -29 -32 -40 -14 -11 -24 -23 -21 -25 7 -7 68
62 68 75 0 17 -8 11 -15 -10z"/>
<path d="M4357 1729 c7 -7 15 -10 18 -7 3 3 -2 9 -12 12 -14 6 -15 5 -6 -5z"/>
<path d="M4610 1736 c0 -3 9 -10 20 -16 11 -6 20 -8 20 -6 0 3 -9 10 -20 16
-11 6 -20 8 -20 6z"/>
<path d="M4727 1729 c7 -7 15 -10 18 -7 3 3 -2 9 -12 12 -14 6 -15 5 -6 -5z"/>
<path d="M4830 1736 c0 -2 7 -7 16 -10 8 -3 12 -2 9 4 -6 10 -25 14 -25 6z"/>
<path d="M4460 1726 c0 -3 9 -10 20 -16 11 -6 20 -8 20 -6 0 3 -9 10 -20 16
-11 6 -20 8 -20 6z"/>
<path d="M4575 1723 c6 -6 33 -23 60 -38 28 -16 46 -24 40 -18 -5 6 -32 23
-60 38 -27 16 -45 24 -40 18z"/>
<path d="M4680 1726 c0 -3 14 -12 30 -21 17 -9 30 -13 30 -11 0 3 -13 12 -30
21 -16 9 -30 13 -30 11z"/>
<path d="M4331 1707 c2 -1 13 -9 24 -17 19 -14 19 -14 6 3 -7 9 -18 17 -24 17
-6 0 -8 -1 -6 -3z"/>
<path d="M4660 1706 c0 -2 16 -13 36 -25 19 -12 32 -16 29 -11 -7 11 -65 43
-65 36z"/>
<path d="M4777 1699 c7 -7 15 -10 18 -7 3 3 -2 9 -12 12 -14 6 -15 5 -6 -5z"/>
<path d="M4820 1706 c0 -2 7 -7 16 -10 8 -3 12 -2 9 4 -6 10 -25 14 -25 6z"/>
<path d="M5150 1706 c0 -3 14 -12 30 -21 17 -9 30 -13 30 -11 0 3 -13 12 -30
21 -16 9 -30 13 -30 11z"/>
<path d="M4517 1689 c7 -7 15 -10 18 -7 3 3 -2 9 -12 12 -14 6 -15 5 -6 -5z"/>
<path d="M4332 1674 c10 -10 20 -16 22 -13 3 3 -5 11 -17 18 -21 13 -21 12 -5
-5z"/>
<path d="M4750 1686 c0 -3 9 -10 20 -16 11 -6 20 -8 20 -6 0 3 -9 10 -20 16
-11 6 -20 8 -20 6z"/>
<path d="M1500 1638 l-55 -28 40 6 c22 4 45 11 51 15 6 5 20 7 30 3 14 -4 16
-3 5 4 -11 8 -11 10 0 14 10 3 10 5 -2 9 -7 3 -39 -7 -69 -23z"/>
<path d="M4620 1666 c0 -3 9 -10 20 -16 11 -6 20 -8 20 -6 0 3 -9 10 -20 16
-11 6 -20 8 -20 6z"/>
<path d="M5110 1666 c0 -3 14 -12 30 -21 17 -9 30 -13 30 -11 0 3 -13 12 -30
21 -16 9 -30 13 -30 11z"/>
<path d="M4310 1650 c8 -5 20 -10 25 -10 6 0 3 5 -5 10 -8 5 -19 10 -25 10 -5
0 -3 -5 5 -10z"/>
<path d="M4447 1649 c7 -7 15 -10 18 -7 3 3 -2 9 -12 12 -14 6 -15 5 -6 -5z"/>
<path d="M4580 1656 c0 -3 14 -12 30 -21 17 -9 30 -13 30 -11 0 3 -13 12 -30
21 -16 9 -30 13 -30 11z"/>
<path d="M4690 1656 c0 -3 9 -10 20 -16 11 -6 20 -8 20 -6 0 3 -9 10 -20 16
-11 6 -20 8 -20 6z"/>
<path d="M4800 1656 c0 -3 14 -12 30 -21 17 -9 30 -13 30 -11 0 3 -13 12 -30
21 -16 9 -30 13 -30 11z"/>
<path d="M3595 1640 c3 -5 8 -10 11 -10 2 0 4 5 4 10 0 6 -5 10 -11 10 -5 0
-7 -4 -4 -10z"/>
<path d="M4290 1630 c8 -5 20 -10 25 -10 6 0 3 5 -5 10 -8 5 -19 10 -25 10 -5
0 -3 -5 5 -10z"/>
<path d="M4420 1636 c0 -3 9 -10 20 -16 11 -6 20 -8 20 -6 0 3 -9 10 -20 16
-11 6 -20 8 -20 6z"/>
<path d="M4677 1629 c7 -7 15 -10 18 -7 3 3 -2 9 -12 12 -14 6 -15 5 -6 -5z"/>
<path d="M4540 1626 c0 -2 7 -7 16 -10 8 -3 12 -2 9 4 -6 10 -25 14 -25 6z"/>
<path d="M4800 1626 c0 -3 9 -10 20 -16 11 -6 20 -8 20 -6 0 3 -9 10 -20 16
-11 6 -20 8 -20 6z"/>
<path d="M5187 1619 c7 -7 15 -10 18 -7 3 3 -2 9 -12 12 -14 6 -15 5 -6 -5z"/>
<path d="M4277 1609 c7 -7 15 -10 18 -7 3 3 -2 9 -12 12 -14 6 -15 5 -6 -5z"/>
<path d="M4650 1616 c0 -3 9 -10 20 -16 11 -6 20 -8 20 -6 0 3 -9 10 -20 16
-11 6 -20 8 -20 6z"/>
<path d="M4760 1616 c0 -3 9 -10 20 -16 11 -6 20 -8 20 -6 0 3 -9 10 -20 16
-11 6 -20 8 -20 6z"/>
<path d="M4490 1596 c0 -3 9 -10 20 -16 11 -6 20 -8 20 -6 0 3 -9 10 -20 16
-11 6 -20 8 -20 6z"/>
<path d="M4600 1596 c0 -3 9 -10 20 -16 11 -6 20 -8 20 -6 0 3 -9 10 -20 16
-11 6 -20 8 -20 6z"/>
<path d="M4560 1586 c0 -3 14 -12 30 -21 17 -9 30 -13 30 -11 0 3 -13 12 -30
21 -16 9 -30 13 -30 11z"/>
<path d="M4410 1576 c0 -3 9 -10 20 -16 11 -6 20 -8 20 -6 0 3 -9 10 -20 16
-11 6 -20 8 -20 6z"/>
<path d="M4785 1570 c7 -11 65 -43 65 -36 0 2 -16 13 -36 25 -19 12 -32 16
-29 11z"/>
<path d="M5100 1577 c0 -7 72 -48 76 -44 2 2 -14 14 -36 26 -22 12 -40 20 -40
18z"/>
<path d="M4500 1556 c0 -3 9 -10 20 -16 11 -6 20 -8 20 -6 0 3 -9 10 -20 16
-11 6 -20 8 -20 6z"/>
<path d="M4560 1556 c0 -3 9 -10 20 -16 11 -6 20 -8 20 -6 0 3 -9 10 -20 16
-11 6 -20 8 -20 6z"/>
<path d="M4410 1546 c0 -3 9 -10 20 -16 11 -6 20 -8 20 -6 0 3 -9 10 -20 16
-11 6 -20 8 -20 6z"/>
<path d="M4637 1539 c7 -7 15 -10 18 -7 3 3 -2 9 -12 12 -14 6 -15 5 -6 -5z"/>
<path d="M4480 1536 c0 -3 9 -10 20 -16 11 -6 20 -8 20 -6 0 3 -9 10 -20 16
-11 6 -20 8 -20 6z"/>
<path d="M4550 1526 c0 -3 14 -12 30 -21 17 -9 30 -13 30 -11 0 3 -13 12 -30
21 -16 9 -30 13 -30 11z"/>
<path d="M4610 1526 c0 -3 9 -10 20 -16 11 -6 20 -8 20 -6 0 3 -9 10 -20 16
-11 6 -20 8 -20 6z"/>
<path d="M3818 1495 c-25 -33 -102 -68 -130 -60 -18 6 -20 5 -11 -5 19 -21 78
-3 125 39 23 22 41 41 38 44 -3 3 -13 -5 -22 -18z"/>
<path d="M4730 1516 c0 -2 7 -7 16 -10 8 -3 12 -2 9 4 -6 10 -25 14 -25 6z"/>
<path d="M4470 1506 c0 -2 7 -7 16 -10 8 -3 12 -2 9 4 -6 10 -25 14 -25 6z"/>
<path d="M4550 1496 c0 -3 9 -10 20 -16 11 -6 20 -8 20 -6 0 3 -9 10 -20 16
-11 6 -20 8 -20 6z"/>
<path d="M4660 1496 c0 -3 14 -12 30 -21 17 -9 30 -13 30 -11 0 3 -13 12 -30
21 -16 9 -30 13 -30 11z"/>
<path d="M4770 1496 c0 -3 9 -10 20 -16 11 -6 20 -8 20 -6 0 3 -9 10 -20 16
-11 6 -20 8 -20 6z"/>
<path d="M4530 1476 c0 -3 9 -10 20 -16 11 -6 20 -8 20 -6 0 3 -9 10 -20 16
-11 6 -20 8 -20 6z"/>
<path d="M4600 1466 c0 -3 9 -10 20 -16 11 -6 20 -8 20 -6 0 3 -9 10 -20 16
-11 6 -20 8 -20 6z"/>
<path d="M4670 1456 c0 -3 14 -12 30 -21 17 -9 30 -13 30 -11 0 3 -13 12 -30
21 -16 9 -30 13 -30 11z"/>
<path d="M4730 1456 c0 -3 9 -10 20 -16 11 -6 20 -8 20 -6 0 3 -9 10 -20 16
-11 6 -20 8 -20 6z"/>
<path d="M4670 1426 c0 -3 9 -10 20 -16 11 -6 20 -8 20 -6 0 3 -9 10 -20 16
-11 6 -20 8 -20 6z"/>
<path d="M4800 1416 c0 -3 9 -10 20 -16 11 -6 20 -8 20 -6 0 3 -9 10 -20 16
-11 6 -20 8 -20 6z"/>
<path d="M4660 1396 c0 -2 7 -7 16 -10 8 -3 12 -2 9 4 -6 10 -25 14 -25 6z"/>
<path d="M4315 1380 c-4 -7 -3 -16 3 -22 14 -14 57 -6 57 12 0 18 -50 26 -60
10z"/>
<path d="M4945 1360 c-4 -16 -11 -32 -16 -35 -26 -17 -3 -43 84 -94 85 -50 98
-55 167 -59 50 -3 78 -9 83 -18 4 -8 22 -14 38 -14 24 0 30 4 27 18 -2 9 -13
18 -26 20 -23 4 -30 26 -11 38 6 3 18 22 26 41 18 43 5 67 -56 100 -38 22 -41
22 -53 5 -24 -33 -70 -62 -98 -62 -16 0 -55 18 -93 45 l-66 45 -6 -30z"/>
<path d="M458 1373 c18 -2 45 -2 60 0 15 2 0 4 -33 4 -33 0 -45 -2 -27 -4z"/>
<path d="M4700 1376 c0 -3 9 -10 20 -16 11 -6 20 -8 20 -6 0 3 -9 10 -20 16
-11 6 -20 8 -20 6z"/>
<path d="M370 1360 c-11 -8 -7 -9 15 -4 37 8 45 14 19 14 -10 0 -26 -5 -34
-10z"/>
<path d="M551 1366 c2 -2 18 -6 34 -10 22 -5 26 -4 15 4 -14 9 -59 15 -49 6z"/>
<path d="M301 1321 c-17 -16 -31 -35 -31 -41 0 -7 9 -1 21 14 11 14 30 33 42
41 12 8 16 15 10 15 -6 0 -25 -13 -42 -29z"/>
<path d="M661 1315 c15 -17 29 -37 32 -45 5 -13 5 -13 6 0 0 17 -15 39 -44 60
-13 9 -11 4 6 -15z"/>
<path d="M4770 1336 c0 -3 9 -10 20 -16 11 -6 20 -8 20 -6 0 3 -9 10 -20 16
-11 6 -20 8 -20 6z"/>
<path d="M4695 1320 c3 -5 8 -10 11 -10 2 0 4 5 4 10 0 6 -5 10 -11 10 -5 0
-7 -4 -4 -10z"/>
<path d="M4175 1300 c-10 -16 4 -30 30 -30 29 0 43 19 24 31 -19 12 -46 11
-54 -1z"/>
<path d="M4481 1287 c-14 -18 -4 -27 29 -27 15 0 30 3 33 7 10 10 -13 33 -33
33 -10 0 -23 -6 -29 -13z"/>
<path d="M2375 1262 c-32 -15 -382 -208 -523 -288 -37 -22 -50 -51 -31 -69 12
-10 221 -130 379 -217 25 -14 80 -44 123 -67 58 -32 86 -42 110 -39 18 2 165
75 325 163 358 194 348 177 162 278 -122 67 -167 91 -360 196 -114 63 -133 67
-185 43z m115 -95 c0 -18 112 -46 134 -32 12 7 26 5 54 -10 20 -11 38 -26 38
-33 1 -6 2 -25 3 -42 1 -23 6 -30 21 -30 18 0 20 -7 20 -70 0 -63 -2 -70 -20
-70 -21 0 -24 7 -20 50 l2 25 -26 -24 c-22 -21 -24 -26 -11 -33 9 -6 15 -24
15 -49 0 -34 -5 -42 -32 -59 -45 -27 -48 -26 -48 19 0 48 -15 55 -90 41 -29
-5 -54 -10 -56 -10 -2 0 -4 -22 -4 -50 l0 -50 -49 0 -50 0 -3 52 -3 52 -55 12
c-76 18 -90 12 -90 -38 0 -22 -3 -38 -7 -36 -63 31 -63 30 -63 74 0 27 5 46
14 51 13 7 12 12 -4 33 l-20 25 0 -32 c0 -26 -4 -33 -19 -33 -16 0 -21 9 -26
43 -10 64 -4 92 20 92 25 -1 44 23 45 55 0 20 9 29 41 42 24 10 47 14 56 10
21 -12 123 9 123 25 0 9 16 13 55 13 38 0 55 -4 55 -13z"/>
<path d="M2345 1049 c-38 -14 -65 -38 -65 -56 0 -8 21 -23 46 -35 36 -16 62
-19 113 -16 173 10 174 106 1 114 -36 2 -78 -1 -95 -7z"/>
<path d="M5650 1253 c-52 -8 -146 -36 -182 -54 -78 -40 -148 -124 -148 -178 0
-11 -9 -22 -20 -26 -11 -3 -20 -10 -20 -15 0 -5 9 -14 20 -20 13 -7 20 -21 20
-38 0 -15 8 -44 18 -64 l19 -36 -30 -6 c-21 -4 -28 -10 -23 -21 4 -11 -5 -21
-29 -32 -31 -15 -33 -18 -20 -33 8 -9 20 -31 26 -48 6 -18 15 -32 20 -32 6 0
46 21 90 46 65 38 84 45 107 38 l27 -8 -28 -4 c-40 -5 -33 -37 8 -37 22 0 30
4 29 18 -1 9 -1 17 0 17 0 0 37 -7 81 -15 152 -27 289 -13 409 43 122 58 170
122 168 229 -2 110 -63 187 -187 237 -98 39 -249 56 -355 39z m310 -101 c96
-31 164 -90 184 -158 15 -49 -80 -134 -190 -170 -80 -26 -302 -27 -384 -2
-113 35 -210 115 -210 172 0 30 53 91 104 121 24 14 76 34 117 45 99 27 283
23 379 -8z"/>
<path d="M270 1235 c-1 -31 82 -95 122 -95 7 0 -10 11 -39 24 -31 15 -58 36
-67 53 -8 15 -15 23 -16 18z"/>
<path d="M682 1215 c-7 -16 -32 -35 -64 -50 -29 -14 -47 -25 -40 -25 39 0 138
78 120 95 -3 3 -10 -6 -16 -20z"/>
<path d="M4031 1221 c-21 -13 -4 -31 30 -31 31 0 41 23 13 34 -20 8 -26 7 -43
-3z"/>
<path d="M4845 1210 c-3 -6 1 -7 9 -4 18 7 21 14 7 14 -6 0 -13 -4 -16 -10z"/>
<path d="M4337 1203 c-12 -11 -8 -21 12 -28 24 -7 51 4 51 21 0 14 -51 20 -63
7z"/>
<path d="M4645 1190 c-4 -7 -3 -16 3 -22 14 -14 57 -6 57 12 0 18 -50 26 -60
10z"/>
<path d="M4955 1180 c-4 -7 -3 -16 3 -22 14 -14 57 -6 57 12 0 18 -50 26 -60
10z"/>
<path d="M448 1133 c23 -2 59 -2 80 0 20 2 1 4 -43 4 -44 0 -61 -2 -37 -4z"/>
<path d="M4195 1120 c-4 -7 -3 -16 3 -22 14 -14 57 -6 57 12 0 18 -50 26 -60
10z"/>
<path d="M4507 1113 c-4 -3 -7 -12 -7 -20 0 -16 56 -18 66 -2 12 20 -42 40
-59 22z"/>
<path d="M4823 1103 c-20 -7 -15 -30 7 -36 10 -3 27 1 37 9 16 12 16 15 3 24
-16 10 -28 11 -47 3z"/>
<path d="M5122 1073 c4 -20 36 -28 57 -14 21 13 4 31 -30 31 -24 0 -30 -4 -27
-17z"/>
<path d="M4364 1025 c-16 -11 -16 -13 4 -24 23 -12 68 2 57 18 -9 16 -44 19
-61 6z"/>
<path d="M4664 1009 c-3 -6 0 -15 7 -20 21 -14 53 -6 57 14 3 13 -3 17 -27 17
-16 0 -33 -5 -37 -11z"/>
<path d="M4974 999 c-3 -6 -2 -15 4 -21 15 -15 56 -5 60 15 3 13 -3 17 -27 17
-16 0 -33 -5 -37 -11z"/>
<path d="M4525 930 c-4 -7 -3 -16 3 -22 14 -14 57 -6 57 12 0 18 -50 26 -60
10z"/>
<path d="M4841 921 c-19 -12 -5 -31 24 -31 13 0 27 5 31 11 7 11 -12 29 -31
29 -5 0 -16 -4 -24 -9z"/>
<path d="M5140 896 c0 -18 30 -29 54 -20 26 10 13 29 -22 32 -23 2 -32 -1 -32
-12z"/>
<path d="M1812 849 l3 -41 250 -140 c138 -77 273 -151 300 -163 l50 -24 135
19 c190 27 242 37 205 39 -28 1 -30 4 -31 38 0 21 4 43 10 49 6 6 74 46 151
88 166 92 178 102 173 144 l-3 31 -295 -161 c-243 -133 -302 -162 -335 -162
-33 0 -90 28 -328 162 l-288 161 3 -40z"/>
<path d="M4687 833 c-10 -10 13 -33 33 -33 20 0 43 23 33 33 -3 4 -18 7 -33 7
-15 0 -30 -3 -33 -7z"/>
<path d="M4995 819 c-4 -6 -1 -15 6 -20 21 -14 64 -6 64 11 0 18 -60 26 -70 9z"/>
<path d="M4861 741 c-21 -13 -4 -31 30 -31 24 0 30 4 27 18 -4 19 -36 27 -57
13z"/>
<path d="M5327 634 c-20 -20 -6 -35 31 -32 47 4 52 32 7 36 -17 2 -34 0 -38
-4z"/>
<path d="M4859 623 c-49 -11 -48 -113 2 -183 63 -87 149 -83 149 7 0 89 -87
190 -151 176z"/>
<path d="M4062 579 c-77 -10 -141 -57 -142 -105 -1 -122 316 -149 376 -32 44
85 -78 157 -234 137z m168 -31 c25 -13 51 -35 59 -49 13 -24 13 -30 -2 -53
-61 -92 -274 -94 -341 -3 -19 26 -19 30 -6 55 25 44 93 72 175 72 54 0 82 -5
115 -22z"/>
<path d="M5265 530 c3 -5 8 -10 11 -10 2 0 4 5 4 10 0 6 -5 10 -11 10 -5 0 -7
-4 -4 -10z"/>
<path d="M5168 483 c-37 -20 -66 -39 -63 -41 6 -6 167 19 185 29 11 6 12 8 1
9 -7 0 -11 6 -8 14 6 14 -13 27 -36 25 -7 0 -42 -17 -79 -36z"/>
</g>
</svg>
